<svg xmlns="http://www.w3.org/2000/svg" width="24" height="24" viewBox="0 0 24 24">
  <g id="Smock_PersonalizationField_18_N" transform="translate(1 1)">
    <rect id="Canvas" width="24" height="24" transform="translate(-1 -1)" fill="#ff13dc" opacity="0"/>
    <path id="Path_12959" data-name="Path 12959" d="M18.875,1H2.625A.625.625,0,0,0,2,1.625v18.75A.625.625,0,0,0,2.625,21h16.25a.625.625,0,0,0,.625-.625V1.625A.625.625,0,0,0,18.875,1ZM7,18.188a.313.313,0,0,1-.312.313H3.563a.313.313,0,0,1-.312-.312v-.625a.313.313,0,0,1,.313-.312H6.688A.313.313,0,0,1,7,17.563Zm11.25,0a.313.313,0,0,1-.312.313H9.813a.313.313,0,0,1-.312-.312v-.625a.313.313,0,0,1,.313-.312h8.125a.313.313,0,0,1,.313.313Zm0-4.687H16.706c-.591-.87-1.679-1.351-3.643-1.55a.636.636,0,0,1-.551-.639v-.923a.639.639,0,0,1,.162-.412,4.875,4.875,0,0,0,1.108-3.043c0-2.3-1.221-3.589-3.066-3.589s-3.1,1.337-3.1,3.589A4.928,4.928,0,0,0,8.778,9.976a.637.637,0,0,1,.163.412v.919a.634.634,0,0,1-.553.64c-2.026.176-3.113.667-3.687,1.554H3.25V2.25h15Z"/>
  </g>
</svg>
