<svg width="86" height="86" viewBox="0 0 86 86" fill="none" xmlns="http://www.w3.org/2000/svg">
<g id="Group 1000004520">
<g id="Group 1000004125">
<path id="Polygon 34" d="M71.2871 30.4509L71.2871 30.451L71.0669 56.8224C71.0579 57.8964 70.7736 58.9462 70.2423 59.8655C69.711 60.7848 68.9519 61.5406 68.0419 62.0568L45.6966 74.7319C44.7902 75.246 43.7663 75.5041 42.7277 75.481C41.6891 75.4578 40.6719 75.1543 39.7781 74.6009L17.6202 60.8843C16.7263 60.331 15.9867 59.547 15.4758 58.6108C14.9648 57.6745 14.7003 56.6187 14.7093 55.5491L14.7093 55.549L14.9295 29.1776C14.9384 28.1036 15.2228 27.0539 15.7541 26.1346C16.2854 25.2153 17.0445 24.4594 17.9545 23.9432L40.2998 11.2681C40.2999 11.2681 40.2999 11.2681 40.2999 11.2681C41.2062 10.754 42.2301 10.4959 43.2687 10.519C44.3073 10.5422 45.3245 10.8458 46.2183 11.3991L46.2183 11.3991L68.3762 25.1157C69.2701 25.6691 70.0097 26.453 70.5206 27.3892C71.0316 28.3255 71.2961 29.3813 71.2871 30.4509Z" fill="#FAD000" stroke="#434343" stroke-width="2"/>
</g>
<g id="Group 1000004143">
<path id="Path 3465" d="M49.9984 36.5559C49.2996 36.6024 48.6113 36.7452 47.9512 36.9806C48.361 36.3907 48.6948 35.7455 48.944 35.0615C50.0039 31.8269 49.8021 26.6407 48.0711 26.1819C47.4592 26.0916 46.8391 26.1942 46.2896 26.4768C44.0032 27.5092 42.1713 29.3937 41.1397 31.7745C40.3424 34.8594 39.8097 38.0181 39.5477 41.2131C38.5071 41.4995 37.5514 42.0452 36.7608 42.8046C31.748 47.4013 35.9651 53.7525 41.2116 57.5044C44.9897 60.2113 49.2953 61.571 51.0534 59.9589C53.4394 57.7714 51.2809 49.9765 47.3985 45.1118C48.4914 45.2699 49.5925 45.3412 50.6924 45.3251C51.5054 45.2685 52.3011 45.0695 53.0469 44.7364C55.5159 43.6832 57.7807 41.4651 57.8513 40.0547C57.9471 38.1941 53.2679 36.4537 49.9984 36.5559ZM43.7696 32.822C44.4256 31.4347 45.4626 30.2915 46.7488 29.5376C46.8844 31.066 46.7319 32.6017 46.3 34.0566C45.3462 35.8729 44.1096 37.5045 42.6407 38.8852C42.8562 36.8317 43.2345 34.8039 43.7717 32.823M41.0409 52.2666L38.8959 50.2525C38.4717 49.855 38.1668 49.3363 38.0196 48.762C37.8725 48.1877 37.8898 47.5837 38.0693 47.0263C38.2488 46.4689 38.5824 45.9831 39.0281 45.6304C39.4737 45.2777 40.0113 45.074 40.5729 45.0449C41.1344 45.0159 41.6947 45.1628 42.1829 45.4672C42.6711 45.7716 43.0652 46.2197 43.3154 46.7549C43.5657 47.2901 43.6608 47.8883 43.5887 48.4739C43.5166 49.0595 43.2807 49.6062 42.9106 50.0448L41.0409 52.2666ZM48.8583 55.6249C48.3621 56.2129 47.6604 56.5651 46.9076 56.6041C46.1547 56.643 45.4123 56.3655 44.8436 55.8325L42.6986 53.8185L44.5731 51.6002C44.8192 51.3088 45.1184 51.0723 45.4537 50.9043C45.7889 50.7362 46.1535 50.6399 46.5268 50.6209C46.9001 50.6018 47.2747 50.6603 47.6292 50.7931C47.9837 50.9259 48.3112 51.1304 48.593 51.3948C48.8748 51.6593 49.1053 51.9786 49.2715 52.3344C49.4376 52.6902 49.5361 53.0757 49.5613 53.4687C49.5866 53.8618 49.538 54.2548 49.4184 54.6252C49.2989 54.9956 49.1107 55.3363 48.8645 55.6277M51.9625 42.0118C51.5073 42.222 51.0203 42.3499 50.5219 42.3901C48.5556 42.3409 46.5935 42.1191 44.6561 41.727C45.5703 41.2199 46.6015 40.6903 47.6015 40.2638C48.4012 39.8655 49.2592 39.6071 50.1425 39.4985C51.5996 39.4971 53.0479 39.7989 54.4043 40.3863C53.685 41.0695 52.8597 41.619 51.9625 42.0118Z" fill="#2A2A2A"/>
<path id="Path 3466" d="M35.879 40.8819C36.7977 39.0931 36.9331 36.0476 34.3835 35.4326C32.3203 35.3157 31.2605 36.0401 30.7302 38.9274C30.6092 39.5787 30.5547 40.2404 30.5678 40.9018C29.9091 40.3693 29.1552 39.9719 28.3469 39.731C27.8823 39.5367 27.372 39.4806 26.8747 39.5693C26.3773 39.6579 25.913 39.8875 25.535 40.2319C25.1348 40.7247 24.8972 41.333 24.8566 41.9689C24.7192 42.0445 24.6106 42.1654 24.5487 42.3116C24.4868 42.4578 24.4753 42.6207 24.5161 42.7734C24.5568 42.9261 24.6474 43.0595 24.7729 43.1517C24.8985 43.2439 25.0515 43.2894 25.2067 43.2807C25.362 43.272 25.5103 43.2096 25.6272 43.1038C25.7441 42.9979 25.8227 42.855 25.85 42.6985C25.8772 42.542 25.8517 42.3812 25.7774 42.2426C25.7031 42.104 25.5845 41.9959 25.4412 41.936C25.4734 41.3784 25.7161 40.8529 26.1183 40.4703C26.3352 40.3172 26.5801 40.211 26.8378 40.1581C27.0955 40.1052 27.3606 40.1069 27.6165 40.163C28.1777 40.2508 28.7199 40.4325 29.2214 40.7008C28.8006 40.7171 28.3943 40.869 28.0607 41.1348C27.589 41.5566 27.2592 42.1192 27.1189 42.7413C26.9715 42.7937 26.8456 42.8956 26.7617 43.0302C26.6778 43.1648 26.6411 43.3241 26.6574 43.4818C26.6738 43.6395 26.7424 43.7863 26.8519 43.8979C26.9613 44.0095 27.1051 44.0793 27.2596 44.0958C27.4141 44.1123 27.57 44.0745 27.7017 43.9886C27.8334 43.9028 27.933 43.774 27.9841 43.6235C28.0352 43.4729 28.0347 43.3097 27.9828 43.1606C27.9309 43.0115 27.8306 42.8854 27.6984 42.8032C27.8176 42.2574 28.1391 41.7779 28.5951 41.4656C28.8326 41.35 29.0903 41.2852 29.3523 41.2753C29.6142 41.2654 29.8748 41.3106 30.1179 41.408C30.2086 41.4374 30.2988 41.474 30.387 41.5097C30.4689 41.5813 30.5485 41.6556 30.6246 41.7297C30.8152 43.2391 31.42 44.3117 32.1875 44.5169C33.376 44.8342 34.9624 42.6628 35.8798 40.871" fill="#2A2A2A"/>
</g>
</g>
</svg>
