<svg width="20" height="21" viewBox="0 0 20 21" fill="none" xmlns="http://www.w3.org/2000/svg">
<g id="Layer_1" clip-path="url(#clip0_3773_4208)">
<path id="Vector" d="M11.4125 10.3394L19.7125 2.04941C20.1025 1.65941 20.1025 1.02941 19.7125 0.639414C19.3225 0.249414 18.6925 0.249414 18.3025 0.639414L10.0125 8.92941L1.7125 0.629414C1.3225 0.239414 0.6825 0.239414 0.2925 0.629414C-0.0975 1.01941 -0.0975 1.65941 0.2925 2.04941L8.5825 10.3394L0.2925 18.6294C-0.0975 19.0194 -0.0975 19.6494 0.2925 20.0394C0.4925 20.2394 0.7425 20.3294 1.0025 20.3294C1.2625 20.3294 1.5125 20.2294 1.7125 20.0394L10.0025 11.7494L18.2925 20.0394C18.4925 20.2394 18.7425 20.3294 19.0025 20.3294C19.2625 20.3294 19.5125 20.2294 19.7125 20.0394C20.1025 19.6494 20.1025 19.0194 19.7125 18.6294L11.4225 10.3394H11.4125Z" fill="white"/>
</g>
<defs>
<clipPath id="clip0_3773_4208">
<rect width="20" height="20" fill="white" transform="translate(0 0.336914)"/>
</clipPath>
</defs>
</svg>
