<svg width="946" height="946" viewBox="0 0 946 946" fill="none" xmlns="http://www.w3.org/2000/svg">
<mask id="mask0_2146_8248" style="mask-type:alpha" maskUnits="userSpaceOnUse" x="0" y="0" width="946" height="946">
<rect width="946" height="946" fill="#D9D9D9"/>
</mask>
<g mask="url(#mask0_2146_8248)">
<path d="M788.136 588.635L785.795 392.399L786.091 392.222L956.453 295.635L957.045 296.652L786.989 393.085L789.319 588.611L788.136 588.635Z" fill="#EB1000" fill-opacity="0.75"/>
<path d="M786.628 392.174L786.039 393.199L956.001 490.814L956.59 489.788L786.628 392.174Z" fill="#EB1000" fill-opacity="0.75"/>
<path d="M785.83 197.488C789.709 197.488 793.587 198.481 797.076 200.479L946.887 286.293C953.899 290.314 958.239 297.764 958.262 305.84L958.854 478.485C958.877 486.561 954.597 494.047 947.608 498.115L798.388 584.945C794.876 586.991 790.939 588.02 787.013 588.02C783.087 588.02 779.255 587.027 775.767 585.028L625.956 499.214C618.944 495.194 614.604 487.744 614.58 479.668L613.989 307.022C613.966 298.946 618.246 291.461 625.235 287.393L774.454 200.562C777.966 198.516 781.904 197.488 785.83 197.488ZM785.83 196.305C781.632 196.305 777.493 197.417 773.863 199.533L624.644 286.364C617.312 290.633 612.783 298.544 612.807 307.022L613.398 479.668C613.422 488.146 618.01 496.033 625.365 500.243L775.176 586.057C778.771 588.115 782.862 589.202 787.013 589.202C791.163 589.202 795.349 588.091 798.979 585.974L948.199 499.143C955.531 494.874 960.06 486.964 960.036 478.485L959.445 305.84C959.421 297.361 954.833 289.474 947.478 285.265L797.667 199.451C794.072 197.393 789.981 196.305 785.842 196.305H785.83Z" fill="#EB1000" fill-opacity="0.75"/>
<path d="M269.882 488.075L269.314 487.034L440.446 392.411L440.174 196.908H441.356L441.628 393.108L269.882 488.075Z" fill="#EB1000" fill-opacity="0.75"/>
<path d="M272.434 292.753L271.834 293.772L440.73 393.22L441.33 392.201L272.434 292.753Z" fill="#EB1000" fill-opacity="0.75"/>
<path d="M440.41 197.488C444.289 197.488 448.167 198.481 451.656 200.479L601.467 286.293C608.479 290.314 612.819 297.764 612.842 305.84L613.434 478.485C613.457 486.561 609.177 494.047 602.188 498.115L452.968 584.945C449.456 586.991 445.519 588.02 441.593 588.02C437.667 588.02 433.836 587.027 430.347 585.028L280.536 499.214C273.524 495.194 269.184 487.744 269.161 479.668L268.569 307.022C268.546 298.946 272.826 291.461 279.815 287.393L429.035 200.562C432.547 198.516 436.484 197.488 440.41 197.488ZM440.41 196.305C436.212 196.305 432.074 197.417 428.443 199.533L279.224 286.364C271.892 290.633 267.363 298.544 267.387 307.022L267.978 479.668C268.002 488.146 272.59 496.033 279.945 500.243L429.756 586.057C433.351 588.115 437.442 589.202 441.593 589.202C445.743 589.202 449.929 588.091 453.56 585.974L602.779 499.143C610.111 494.874 614.64 486.964 614.616 478.485L614.025 305.84C614.001 297.361 609.413 289.474 602.058 285.265L452.247 199.451C448.652 197.393 444.561 196.305 440.422 196.305H440.41Z" fill="#EB1000" fill-opacity="0.75"/>
<path d="M957.329 289.225L956.146 289.214L958.594 93.6753L788.574 -2.8285L789.165 -3.85727L959.788 92.9895L959.777 93.3442L957.329 289.225Z" fill="#EB1000" fill-opacity="0.75"/>
<path d="M958.896 92.815L788.934 190.429L789.523 191.455L959.485 93.8404L958.896 92.815Z" fill="#EB1000" fill-opacity="0.75"/>
<path d="M958.617 -101.91C962.496 -101.91 966.374 -100.917 969.863 -98.9184L1119.67 -13.1044C1126.69 -9.08388 1131.03 -1.63412 1131.05 6.44234L1131.64 179.087C1131.66 187.164 1127.38 194.649 1120.4 198.717L971.175 285.548C967.663 287.594 963.726 288.622 959.8 288.622C955.874 288.622 952.043 287.629 948.554 285.631L798.743 199.817C791.731 195.796 787.391 188.346 787.368 180.27L786.776 7.62485C786.753 -0.45163 791.033 -7.93686 798.022 -12.0047L947.242 -98.8356C950.754 -100.881 954.691 -101.91 958.617 -101.91ZM958.617 -103.093C954.419 -103.093 950.281 -101.981 946.65 -99.8644L797.431 -13.0334C790.099 -8.7646 785.57 -0.853676 785.594 7.62485L786.185 180.27C786.209 188.748 790.797 196.636 798.152 200.845L947.963 286.659C951.558 288.717 955.649 289.805 959.8 289.805C963.95 289.805 968.136 288.693 971.767 286.577L1120.99 199.746C1128.32 195.477 1132.85 187.566 1132.82 179.087L1132.23 6.44234C1132.21 -2.03618 1127.62 -9.92348 1120.27 -14.1332L970.454 -99.9472C966.859 -102.005 962.768 -103.093 958.629 -103.093H958.617Z" fill="#EB1000" fill-opacity="0.75"/>
<path d="M269.314 289.201L267.658 93.0129L267.954 92.8474L438.73 -3.15982L439.31 -2.13102L268.841 93.7106L270.496 289.201H269.314Z" fill="#EB1000" fill-opacity="0.75"/>
<path d="M268.554 92.819L267.961 93.8421L437.547 192.108L438.14 191.085L268.554 92.819Z" fill="#EB1000" fill-opacity="0.75"/>
<path d="M267.623 -101.91C271.502 -101.91 275.38 -100.917 278.869 -98.9185L428.68 -13.1044C435.692 -9.08394 440.032 -1.63419 440.055 6.44228L440.647 179.087C440.67 187.164 436.39 194.649 429.401 198.717L280.181 285.548C276.669 287.594 272.732 288.622 268.806 288.622C264.88 288.622 261.048 287.629 257.56 285.631L107.749 199.828C100.737 195.808 96.3971 188.358 96.3735 180.282L95.7822 7.63659C95.7586 -0.439888 100.039 -7.92512 107.028 -11.9929L256.247 -98.8239C259.759 -100.87 263.697 -101.898 267.623 -101.898M267.623 -103.081C263.425 -103.081 259.286 -101.969 255.656 -99.8527L106.437 -13.0217C99.105 -8.76469 94.5761 -0.841911 94.5997 7.62479L95.191 180.27C95.2146 188.748 99.8027 196.636 107.158 200.845L256.969 286.659C260.564 288.717 264.655 289.805 268.806 289.805C272.956 289.805 277.142 288.693 280.773 286.577L429.992 199.746C437.324 195.477 441.853 187.566 441.829 179.087L441.238 6.44228C441.214 -2.03624 436.626 -9.92355 429.271 -14.1332L279.46 -99.9473C275.865 -102.005 271.774 -103.093 267.635 -103.093L267.623 -103.081Z" fill="#EB1000" fill-opacity="0.75"/>
<path d="M613.741 692.647L613.445 692.469L444.762 592.856L445.365 591.839L613.741 691.275L782.07 591.839L782.661 592.856L613.741 692.647Z" fill="#EB1000" fill-opacity="0.75"/>
<path d="M614.298 495.961H613.115V691.961H614.298V495.961Z" fill="#EB1000" fill-opacity="0.75"/>
<path d="M613.125 496.695C617.004 496.695 620.882 497.688 624.371 499.686L774.182 585.5C781.194 589.521 785.534 596.971 785.557 605.047L786.148 777.692C786.172 785.769 781.891 793.254 774.903 797.322L625.683 884.153C622.171 886.198 618.233 887.227 614.308 887.227C610.382 887.227 606.55 886.234 603.062 884.235L453.251 798.421C446.239 794.401 441.899 786.951 441.875 778.875L441.284 606.23C441.261 598.153 445.541 590.668 452.53 586.6L601.749 499.769C605.261 497.723 609.199 496.695 613.125 496.695ZM613.125 495.512C608.927 495.512 604.788 496.624 601.158 498.74L451.938 585.571C444.607 589.84 440.078 597.751 440.102 606.23L440.693 778.875C440.717 787.353 445.305 795.24 452.66 799.45L602.471 885.264C606.066 887.322 610.157 888.41 614.308 888.41C618.458 888.41 622.644 887.298 626.274 885.181L775.494 798.35C782.826 794.082 787.355 786.171 787.331 777.692L786.74 605.047C786.716 596.569 782.128 588.681 774.773 584.472L624.962 498.658C621.367 496.6 617.276 495.512 613.125 495.512Z" fill="#EB1000" fill-opacity="0.75"/>
<path d="M613.741 94.0538L613.445 93.8764L444.762 -5.74927L445.365 -6.7662L613.741 92.6702L782.07 -6.7662L782.661 -5.73744L613.741 94.0538Z" fill="#EB1000" fill-opacity="0.75"/>
<path d="M614.298 -102.643H613.115V93.356H614.298V-102.643Z" fill="#EB1000" fill-opacity="0.75"/>
<path d="M613.125 -101.91C617.004 -101.91 620.882 -100.917 624.371 -98.9185L774.182 -13.1044C781.194 -9.08394 785.534 -1.63419 785.557 6.44228L786.148 179.087C786.172 187.164 781.891 194.649 774.903 198.717L625.683 285.548C622.171 287.594 618.233 288.622 614.308 288.622C610.382 288.622 606.55 287.629 603.062 285.631L453.251 199.817C446.239 195.796 441.899 188.346 441.875 180.27L441.284 7.62479C441.261 -0.451691 445.541 -7.93692 452.53 -12.0047L601.749 -98.8357C605.261 -100.881 609.199 -101.91 613.125 -101.91ZM613.125 -103.093C608.927 -103.093 604.788 -101.981 601.158 -99.8645L451.938 -13.0335C444.607 -8.76466 440.078 -0.853737 440.102 7.62479L440.693 180.27C440.717 188.748 445.305 196.636 452.66 200.845L602.471 286.659C606.066 288.717 610.157 289.805 614.308 289.805C618.458 289.805 622.644 288.693 626.274 286.577L775.494 199.746C782.826 195.477 787.355 187.566 787.331 179.087L786.74 6.44228C786.716 -2.03624 782.128 -9.92355 774.773 -14.1332L624.962 -99.9473C621.367 -102.005 617.276 -103.093 613.137 -103.093H613.125Z" fill="#EB1000" fill-opacity="0.75"/>
</g>
</svg>
