<svg width="96" height="56" viewBox="0 0 96 56" fill="none" xmlns="http://www.w3.org/2000/svg">
<g id="Group 12">
<g id="Group 13">
<path id="Path 3465" d="M53.5905 13.7066C53.175 13.5692 52.7433 13.4868 52.3065 13.4616C52.6806 13.2348 53.0235 12.9602 53.3265 12.6446C54.6905 11.1246 55.7765 8.24457 54.8805 7.59057C54.5471 7.39868 54.1642 7.31026 53.7805 7.33657C52.217 7.36781 50.719 7.97041 49.5695 9.03058C48.3923 10.53 47.3512 12.1313 46.4585 13.8156C45.7894 13.7295 45.1094 13.805 44.4755 14.0356C40.5065 15.3786 41.4755 19.8306 43.6435 23.1026C45.2035 25.4616 47.3815 27.2076 48.7735 26.7366C50.6625 26.0976 51.2205 21.3366 50.1005 17.7746C50.6967 18.1156 51.3178 18.4111 51.9585 18.6586C52.4424 18.8171 52.9493 18.8938 53.4585 18.8856C55.1325 18.8856 56.9585 18.2016 57.3265 17.4476C57.8135 16.4536 55.5075 14.4126 53.5905 13.7066ZM50.8495 10.2156C51.5512 9.61057 52.4168 9.2277 53.3365 9.11558C53.0605 9.98207 52.616 10.7855 52.0285 11.4796C51.0549 12.2495 49.9604 12.8526 48.7895 13.2646C49.3906 12.1931 50.0799 11.1735 50.8505 10.2166M44.7595 20.2016L43.9845 18.6016C43.831 18.2856 43.7747 17.9312 43.8227 17.5832C43.8707 17.2352 44.0208 16.9093 44.254 16.6466C44.4873 16.3839 44.7932 16.1963 45.133 16.1075C45.4729 16.0187 45.8315 16.0326 46.1634 16.1476C46.4953 16.2626 46.7857 16.4734 46.9978 16.7534C47.2099 17.0335 47.3342 17.3701 47.355 17.7208C47.3757 18.0714 47.292 18.4204 47.1145 18.7235C46.9369 19.0266 46.6735 19.2702 46.3575 19.4236L44.7595 20.2016ZM48.5075 23.8576C48.0838 24.0632 47.5958 24.0921 47.1508 23.938C46.7057 23.7838 46.3402 23.4592 46.1345 23.0356L45.3595 21.4356L46.9595 20.6606C47.1696 20.5587 47.3977 20.4993 47.6308 20.4856C47.8639 20.4719 48.0974 20.5043 48.318 20.5808C48.5386 20.6574 48.7419 20.7767 48.9164 20.9318C49.0909 21.087 49.2331 21.275 49.335 21.4851C49.4368 21.6952 49.4963 21.9233 49.5099 22.1564C49.5236 22.3895 49.4913 22.623 49.4147 22.8436C49.3381 23.0642 49.2189 23.2675 49.0637 23.442C48.9086 23.6165 48.7206 23.7587 48.5105 23.8606M53.4625 17.1446C53.1501 17.1533 52.8384 17.1097 52.5405 17.0156C51.4132 16.5305 50.3285 15.9522 49.2975 15.2866C49.9445 15.2226 50.6645 15.1736 51.3425 15.1736C51.8979 15.1423 52.4548 15.2011 52.9915 15.3476C53.8355 15.6863 54.6043 16.1886 55.2535 16.8256C54.6785 17.0312 54.0731 17.139 53.4625 17.1446Z" fill="white"/>
<path id="Path 3466" d="M44.4038 12.753C45.3558 11.953 46.1448 10.242 44.8038 9.26702C43.6298 8.69602 42.8438 8.85202 41.8618 10.376C41.6395 10.7194 41.4535 11.0851 41.3068 11.467C41.0475 11.0012 40.7013 10.5894 40.2868 10.254C40.0616 10.0293 39.7776 9.87251 39.4674 9.80176C39.1571 9.73101 38.8333 9.74913 38.5328 9.85402C38.185 10.0384 37.9048 10.3288 37.7328 10.683C37.6352 10.6928 37.5438 10.7355 37.4736 10.8041C37.4035 10.8727 37.3588 10.9632 37.3469 11.0606C37.335 11.158 37.3567 11.2565 37.4083 11.34C37.4599 11.4235 37.5383 11.4869 37.6308 11.5198C37.7232 11.5528 37.8241 11.5532 37.9168 11.5212C38.0096 11.4892 38.0886 11.4265 38.141 11.3435C38.1934 11.2606 38.216 11.1622 38.2051 11.0647C38.1941 10.9672 38.1503 10.8763 38.0808 10.807C38.2296 10.4955 38.4935 10.2539 38.8168 10.133C38.9788 10.0983 39.1462 10.0973 39.3086 10.13C39.471 10.1627 39.6249 10.2284 39.7608 10.323C40.0671 10.5104 40.3404 10.7469 40.5698 11.023C40.321 10.9296 40.049 10.9173 39.7928 10.988C39.4198 11.1144 39.0966 11.356 38.8698 11.678C38.7718 11.672 38.6747 11.6996 38.5945 11.7562C38.5143 11.8128 38.4557 11.8951 38.4285 11.9894C38.4013 12.0837 38.407 12.1845 38.4447 12.2751C38.4824 12.3658 38.5498 12.4409 38.6359 12.4881C38.722 12.5352 38.8216 12.5517 38.9183 12.5347C39.015 12.5177 39.1031 12.4683 39.1679 12.3946C39.2327 12.3208 39.2705 12.2272 39.2751 12.1292C39.2796 12.0311 39.2506 11.9344 39.1928 11.855C39.3895 11.5716 39.6885 11.3755 40.0268 11.308C40.1921 11.2998 40.3572 11.3257 40.5121 11.384C40.6669 11.4423 40.8081 11.5318 40.9268 11.647C40.9728 11.686 41.0168 11.729 41.0598 11.771C41.0908 11.832 41.1198 11.894 41.1468 11.955C40.9058 12.866 41.0078 13.628 41.4068 13.933C42.0248 14.405 43.4548 13.549 44.4068 12.747" fill="white"/>
<path id="Path 3467" d="M55.9335 34.152H38.8075C38.4136 34.1519 38.0267 34.0482 37.6857 33.8513C37.3446 33.6543 37.0614 33.3711 36.8645 33.03L28.3005 18.2C28.1036 17.8588 28 17.4719 28 17.078C28 16.6841 28.1036 16.2972 28.3005 15.956L36.8635 1.124C37.0602 0.782403 37.3435 0.498664 37.6848 0.301345C38.026 0.104026 38.4133 9.03604e-05 38.8075 0L55.9345 0C56.3283 6.33629e-05 56.7152 0.10378 57.0563 0.300729C57.3973 0.497678 57.6805 0.780922 57.8775 1.122L66.4405 15.954C66.6374 16.2951 66.7411 16.6821 66.7411 17.076C66.7411 17.4699 66.6374 17.8569 66.4405 18.198L57.8775 33.03C57.6805 33.3711 57.3973 33.6543 57.0563 33.8513C56.7152 34.0482 56.3273 34.1519 55.9335 34.152ZM40.1035 31.908H54.6395C55.0333 31.9079 55.4202 31.8042 55.7613 31.6073C56.1023 31.4103 56.3856 31.1271 56.5825 30.786L63.8495 18.2C64.0464 17.8589 64.1501 17.4719 64.1501 17.078C64.1501 16.6841 64.0464 16.2971 63.8495 15.956L56.5815 3.366C56.3846 3.02492 56.1013 2.74168 55.7603 2.54473C55.4192 2.34778 55.0323 2.24406 54.6385 2.244H40.1025C39.7086 2.24406 39.3217 2.34778 38.9807 2.54473C38.6396 2.74168 38.3564 3.02492 38.1595 3.366L30.8945 15.954C30.6975 16.2951 30.5938 16.6821 30.5938 17.076C30.5938 17.4699 30.6975 17.8569 30.8945 18.198L38.1625 30.786C38.3594 31.1271 38.6426 31.4103 38.9837 31.6073C39.3248 31.8042 39.7116 31.9079 40.1055 31.908" fill="white"/>
</g>
<g id="Group 14">
<path id="Path 3468" d="M0.000938062 49.9176V49.8876C-0.00833218 49.1509 0.131196 48.4199 0.411163 47.7385C0.691131 47.057 1.10578 46.4391 1.63026 45.9217C2.15474 45.4043 2.77826 44.9981 3.46347 44.7275C4.14867 44.4568 4.88146 44.3273 5.61794 44.3466C6.49791 44.3053 7.37402 44.4874 8.16456 44.8762C8.9551 45.2649 9.63434 45.8475 10.1389 46.5696L9.44494 47.1066C9.07578 47.392 8.63232 47.5653 8.16743 47.6057C7.70254 47.6461 7.23583 47.552 6.82294 47.3346C6.4418 47.1364 6.01749 47.0357 5.58794 47.0416C5.23403 47.0532 4.8861 47.1361 4.56492 47.2852C4.24375 47.4343 3.95594 47.6467 3.71866 47.9095C3.48139 48.1724 3.29953 48.4803 3.18394 48.815C3.06836 49.1497 3.02142 49.5043 3.04594 49.8576V49.8876C3.0032 50.3639 3.09196 50.8428 3.30256 51.2722C3.51316 51.7016 3.83752 52.065 4.24033 52.3228C4.64314 52.5806 5.10896 52.723 5.58708 52.7344C6.06519 52.7458 6.53728 52.6259 6.95194 52.3876C7.35167 52.1625 7.80766 52.0571 8.26561 52.0839C8.72355 52.1106 9.16416 52.2685 9.53494 52.5386L10.2159 53.0236C9.70431 53.7972 9.0012 54.4252 8.17499 54.8467C7.34877 55.2681 6.42756 55.4686 5.50094 55.4286C4.77441 55.4406 4.05289 55.3063 3.37941 55.0334C2.70594 54.7606 2.09432 54.355 1.58102 53.8406C1.06773 53.3263 0.663287 52.7139 0.391816 52.0399C0.120345 51.3659 -0.0125911 50.6441 0.000938062 49.9176Z" fill="white"/>
<path id="Path 3469" d="M11.4297 44.4754H16.4677C17.097 44.4236 17.7301 44.5025 18.3275 44.7071C18.9248 44.9117 19.4733 45.2376 19.9387 45.6644C20.2606 46.0034 20.5102 46.4044 20.6723 46.843C20.8344 47.2815 20.9057 47.7485 20.8817 48.2154V48.2464C20.9108 48.9653 20.7154 49.6754 20.3226 50.2782C19.9298 50.8811 19.3591 51.3466 18.6897 51.6104L21.2317 55.4284H19.1467C18.7406 55.4285 18.3409 55.327 17.9841 55.1331C17.6272 54.9392 17.3246 54.6592 17.1037 54.3184L15.6737 52.1114H14.3827V55.4284H11.4297V44.4754ZM16.3297 49.7324C17.3297 49.7324 17.9127 49.2324 17.9127 48.4324V48.4004C17.9127 47.5404 17.3037 47.1004 16.3127 47.1004H14.3827V49.7284L16.3297 49.7324Z" fill="white"/>
<path id="Path 3470" d="M95.554 47.7764C95.575 47.3643 95.512 46.9523 95.3688 46.5653C95.2256 46.1784 95.0052 45.8245 94.7209 45.5254C94.3103 45.1488 93.8263 44.8611 93.2992 44.6804C92.7721 44.4997 92.2133 44.4299 91.658 44.4754H87.2109V55.4434H91.5959C92.1513 55.489 92.7101 55.4192 93.2372 55.2385C93.7643 55.0578 94.2483 54.7701 94.6589 54.3934C94.9431 54.0943 95.1636 53.7405 95.3068 53.3535C95.45 52.9665 95.513 52.5545 95.4919 52.1424V52.1184C95.5168 51.3437 95.2515 50.5877 94.748 49.9984C95.2921 49.4012 95.5811 48.6149 95.5529 47.8074L95.554 47.7764ZM92.873 51.9764C92.873 52.7354 92.3359 53.1224 91.4619 53.1224H89.817V50.8024H91.4749C92.3609 50.8024 92.8749 51.2444 92.8749 51.9484L92.873 51.9764ZM92.9349 47.9694C92.9349 48.6694 92.4239 49.1154 91.5349 49.1154H89.8149V46.7954H91.5209C92.3939 46.7954 92.9319 47.1824 92.9319 47.9414L92.9349 47.9694Z" fill="white"/>
<path id="Path 3471" d="M22.3828 44.4756H30.9528V44.6236C30.9528 45.2691 30.6964 45.8882 30.2399 46.3447C29.7834 46.8011 29.1643 47.0576 28.5188 47.0576H25.3058V48.7186H28.9548V51.1126H25.3058V52.8486H28.5918C29.2373 52.8486 29.8564 53.105 30.3129 53.5615C30.7694 54.018 31.0258 54.6371 31.0258 55.2826V55.4306H22.3828V44.4756Z" fill="white"/>
<path id="Path 3472" d="M71.2734 44.4756H79.8434V44.6236C79.8434 45.2691 79.587 45.8882 79.1305 46.3447C78.6741 46.8011 78.055 47.0576 77.4095 47.0576H74.1964V48.7186H77.8454V51.1126H74.1964V52.8486H77.4854C77.8051 52.8486 78.1216 52.9115 78.4169 53.0339C78.7122 53.1562 78.9805 53.3355 79.2065 53.5615C79.4326 53.7875 79.6118 54.0558 79.7342 54.3511C79.8565 54.6464 79.9194 54.963 79.9194 55.2826V55.4306H71.2734V44.4756Z" fill="white"/>
<path id="Path 3473" d="M37.0244 44.4756H39.8674L44.4034 55.4286H42.8854C42.3989 55.4286 41.9236 55.2829 41.5208 55.0101C41.1179 54.7374 40.8061 54.3503 40.6254 53.8986L40.4604 53.4876H36.3504L36.1954 53.8876C36.0168 54.3432 35.7051 54.7344 35.3009 55.0102C34.8967 55.286 34.4187 55.4335 33.9294 55.4336H32.4844L37.0244 44.4756ZM39.6124 51.1406L38.4254 48.0486L37.2254 51.1406H39.6124Z" fill="white"/>
<path id="Path 3474" d="M46.6062 47.1996H43.4062V46.9936C43.4063 46.348 43.6627 45.7289 44.1192 45.2725C44.5756 44.816 45.1947 44.5596 45.8403 44.5596H52.7533V44.7656C52.7533 45.4111 52.4968 46.0302 52.0403 46.4867C51.5839 46.9431 50.9648 47.1996 50.3192 47.1996H49.5562V55.4286H46.6033L46.6062 47.1996Z" fill="white"/>
<path id="Path 3475" d="M56.934 44.5596H57.469V52.9946C57.469 53.6401 57.2126 54.2592 56.7561 54.7157C56.2996 55.1721 55.6805 55.4286 55.035 55.4286H54.5V46.9936C54.5 46.348 54.7564 45.7289 55.2129 45.2725C55.6694 44.816 56.2885 44.5596 56.934 44.5596Z" fill="white"/>
<path id="Path 3476" d="M58.9453 44.5596H60.5363C61.0401 44.5613 61.5309 44.7192 61.9412 45.0115C62.3515 45.3038 62.6611 45.7161 62.8273 46.1916L64.6693 51.3916L66.5113 46.1916C66.6776 45.7161 66.9872 45.3038 67.3975 45.0115C67.8078 44.7192 68.2986 44.5613 68.8023 44.5596H70.3323L66.0103 55.4286H63.2703L58.9453 44.5596Z" fill="white"/>
</g>
</g>
</svg>
