<svg xmlns="http://www.w3.org/2000/svg" width="14" height="14" viewBox="0 0 14 14">
  <g id="Smock_Globe_18_N" transform="translate(0 0)">
    <rect id="Canvas" width="14" height="14" opacity="0"/>
    <g id="Group_196675" data-name="Group 196675" transform="translate(-1 -1)">
      <path id="Path_12960" data-name="Path 12960" d="M3.573,6.284c-.523-1.631.827-2.333.694-3.726A6.665,6.665,0,0,0,1,8.106c0,3.924,3.971,6.262,6.777,6.774a3.939,3.939,0,0,0,.523.073c1-2.2-.886-4.646-2.131-6.241C5.131,7.382,4.189,8.2,3.573,6.284Z"/>
      <path id="Path_12961" data-name="Path 12961" d="M14.5,8.452c-.663-.268-1.231.645-1.282-1.822A2.6,2.6,0,0,1,13.9,4.88a1.238,1.238,0,0,1,.3-.153c-.079-.153-.165-.3-.255-.445-.015.009-.029.02-.045.027-.514.256-.586.331-.823,0a.721.721,0,0,1-.143-.543.7.7,0,0,1,.285-.475,6.414,6.414,0,0,0-4.8-2.285c.835.012,1.83.669,1.322,1.719.077-.167-1.658-.564-1.893-.564-.318,0,.648-1.264.56-1.155a6.292,6.292,0,0,0-2.722.622c.449.31.951.2,1.458.335a1.2,1.2,0,0,1,.453.2,1.488,1.488,0,0,0-.453-.2c-.748-.092.362,2.091.32,1.8A.943.943,0,0,1,9.35,3.7a1.7,1.7,0,0,1-.345.991c-.58.811-.7,2.255-.988,1.886C5.3,5.4,5.6,6.958,6.494,8c1.426,1.672.7.171,2.569,1.047,1.5.7,3.309.87,2.868,1.4C10.6,12.055,10.878,13.118,8.518,15c.2-.006.823-.072.951-.095a6.962,6.962,0,0,0,5.505-6.3.946.946,0,0,1-.475-.152Z" transform="translate(0)"/>
    </g>
  </g>
</svg>
