<svg width="41" height="32" viewBox="0 0 41 32" fill="none" xmlns="http://www.w3.org/2000/svg">
<g id="Isolation_Mode" clip-path="url(#clip0_3432_10772)">
<path id="Vector" d="M2.79788e-06 16.002C3.01884e-06 17.2658 1.00653 18.2857 2.24472 18.2857L33.3312 18.2857L23.6853 28.099C22.8066 28.993 22.8066 30.4396 23.6853 31.3295C24.1247 31.7765 24.6999 32 25.275 32C25.8502 32 26.4253 31.7765 26.8647 31.3295L40.345 17.6152C40.4488 17.5096 40.5447 17.3917 40.6246 17.2658C40.6605 17.2089 40.6845 17.152 40.7164 17.0951C40.7564 17.022 40.8003 16.9529 40.8323 16.8757C40.8642 16.7985 40.8802 16.7213 40.9042 16.6441C40.9241 16.579 40.9481 16.5181 40.9601 16.449C41.016 16.1524 41.016 15.8476 40.9601 15.555C40.9481 15.486 40.9241 15.425 40.9042 15.36C40.8802 15.2828 40.8642 15.2056 40.8323 15.1284C40.8003 15.0512 40.7564 14.9821 40.7164 14.9089C40.6845 14.8521 40.6605 14.7911 40.6246 14.7383C40.5407 14.6123 40.4488 14.4945 40.345 14.3888L26.8647 0.670472C25.99 -0.223497 24.5641 -0.223496 23.6893 0.670472C22.8106 1.56444 22.8106 3.01104 23.6893 3.90501L33.3352 13.7183L2.24472 13.7183C1.00254 13.7183 2.57763e-06 14.7423 2.79859e-06 16.0061L2.79788e-06 16.002Z" fill="#959897"/>
</g>
<defs>
<clipPath id="clip0_3432_10772">
<rect width="41" height="32" fill="white"/>
</clipPath>
</defs>
</svg>
