<svg width="244" height="277" viewBox="0 0 244 277" fill="none" xmlns="http://www.w3.org/2000/svg">
<path d="M116.5 2.83013C119.903 0.865167 124.097 0.865166 127.5 2.83013L236.744 65.9019C240.147 67.8669 242.244 71.4983 242.244 75.4282V201.572C242.244 205.502 240.147 209.133 236.744 211.098L127.5 274.17C124.097 276.135 119.903 276.135 116.5 274.17L7.25645 211.098C3.85304 209.133 1.75645 205.502 1.75645 201.572V75.4282C1.75645 71.4983 3.85303 67.8669 7.25645 65.9019L116.5 2.83013Z" stroke="white" stroke-opacity="0.2" stroke-width="2"/>
<path d="M116.5 2.83013C119.903 0.865167 124.097 0.865166 127.5 2.83013L236.744 65.9019C240.147 67.8669 242.244 71.4983 242.244 75.4282V201.572C242.244 205.502 240.147 209.133 236.744 211.098L127.5 274.17C124.097 276.135 119.903 276.135 116.5 274.17L7.25645 211.098C3.85304 209.133 1.75645 205.502 1.75645 201.572V75.4282C1.75645 71.4983 3.85303 67.8669 7.25645 65.9019L116.5 2.83013Z" stroke="#EB1000" stroke-width="2"/>
</svg>
