<svg xmlns="http://www.w3.org/2000/svg" width="16" height="16" viewBox="0 0 16 16">
  <path id="open_in_new_24dp_E8EAED_FILL0_wght300_GRAD0_opsz24" d="M141.7-804a1.642,1.642,0,0,1-1.207-.494A1.642,1.642,0,0,1,140-805.7v-12.6a1.642,1.642,0,0,1,.494-1.207A1.642,1.642,0,0,1,141.7-820h5.936v1.412H141.7a.276.276,0,0,0-.2.091.276.276,0,0,0-.091.2v12.6a.276.276,0,0,0,.091.2.276.276,0,0,0,.2.091h12.6a.276.276,0,0,0,.2-.091.276.276,0,0,0,.091-.2v-5.936H156v5.936a1.643,1.643,0,0,1-.494,1.207A1.642,1.642,0,0,1,154.3-804Zm4.152-4.862-.992-.992,8.735-8.735h-3.714V-820H156v6.118h-1.412V-817.6Z" transform="translate(-140 820)" fill="#fff"/>
</svg>
