<svg width="41" height="32" viewBox="0 0 41 32" fill="none" xmlns="http://www.w3.org/2000/svg">
<g id="Isolation_Mode" clip-path="url(#clip0_3432_10774)">
<path id="Vector" d="M41 15.998C41 14.7342 39.9935 13.7143 38.7553 13.7143L7.66877 13.7143L17.3147 3.90095C18.1934 3.00698 18.1934 1.56038 17.3147 0.670475C16.8753 0.22349 16.3001 -2.15933e-06 15.725 -2.20961e-06C15.1498 -2.25989e-06 14.5747 0.223489 14.1353 0.670475L0.655031 14.3848C0.551183 14.4904 0.455328 14.6082 0.375444 14.7342C0.339494 14.7911 0.31553 14.848 0.283575 14.9049C0.243635 14.978 0.199697 15.0471 0.167745 15.1243C0.135793 15.2015 0.119813 15.2787 0.0958495 15.3559C0.0758796 15.4209 0.0519157 15.4819 0.0399337 15.551C-0.015986 15.8476 -0.015986 16.1524 0.0399336 16.4449C0.0519156 16.514 0.0758795 16.575 0.0958494 16.64C0.119813 16.7172 0.135793 16.7944 0.167745 16.8716C0.199697 16.9488 0.243635 17.0179 0.283574 17.091C0.31553 17.1479 0.339494 17.2089 0.375444 17.2617C0.459321 17.3877 0.551183 17.5055 0.655031 17.6112L14.1353 31.3295C15.01 32.2235 16.4359 32.2235 17.3107 31.3295C18.1894 30.4356 18.1894 28.989 17.3107 28.095L7.66478 18.2816L38.7553 18.2817C39.9975 18.2817 41 17.2577 41 15.9939L41 15.998Z" fill="#959897"/>
</g>
<defs>
<clipPath id="clip0_3432_10774">
<rect width="41" height="32" fill="white" transform="translate(41 32) rotate(-180)"/>
</clipPath>
</defs>
</svg>
