<svg width="151" height="151" viewBox="0 0 151 151" fill="none" xmlns="http://www.w3.org/2000/svg">
<path d="M144.454 48.1835L144.454 48.1838L143.91 105.514C143.892 107.437 143.374 109.316 142.411 110.963C141.447 112.609 140.07 113.964 138.421 114.89L89.2431 142.499C89.243 142.499 89.243 142.499 89.2429 142.499C87.5999 143.421 85.7437 143.886 83.8604 143.847C81.9771 143.807 80.1327 143.265 78.5122 142.275L29.8068 112.51C28.1862 111.519 26.8464 110.115 25.9216 108.438C24.9968 106.761 24.5196 104.87 24.5379 102.955L24.5379 102.955L25.0823 45.625C25.1006 43.7019 25.6178 41.8221 26.5816 40.1756C27.5454 38.5291 28.9218 37.1744 30.5714 36.2482L79.7491 8.63951C79.7491 8.63948 79.7492 8.63945 79.7492 8.63942C81.3922 7.71716 83.2484 7.25251 85.1318 7.29191C87.0151 7.33131 88.8595 7.87341 90.48 8.86381L90.4801 8.86388L139.185 38.6288C140.806 39.6193 142.146 41.0233 143.071 42.7002C143.995 44.3771 144.473 46.2681 144.454 48.1835Z" stroke="#21A5A2" stroke-opacity="0.5" stroke-width="9"/>
<path d="M86.9512 65.4141C88.5312 66.3797 89.8375 67.7486 90.739 69.3834C91.6406 71.0182 92.1058 72.8616 92.088 74.7287L91.7129 114.217C91.6951 116.092 91.191 117.924 90.2516 119.529C89.3121 121.134 87.9706 122.454 86.3626 123.357L52.489 142.374C50.8874 143.273 49.0779 143.726 47.2418 143.688C45.4057 143.649 43.6076 143.121 42.0276 142.155L8.47949 121.653C6.89947 120.687 5.59319 119.319 4.69161 117.684C3.79004 116.049 3.32485 114.206 3.34268 112.339L3.71772 72.8498C3.73553 70.9752 4.23963 69.1429 5.17907 67.5381C6.11852 65.9333 7.46003 64.6128 9.06807 63.71L42.9417 44.6931C44.5432 43.7941 46.3528 43.3411 48.1889 43.3795C50.025 43.4179 51.8231 43.9464 53.403 44.912L86.9512 65.4141Z" fill="#21A5A2"/>
<path d="M18.2038 104.631L18.1308 86.0623L27.6483 71.3043L37.224 71.3435L31.1366 86.1155L38.1396 86.1441L38.2126 104.713L18.2038 104.631ZM43.3577 104.734L43.2848 86.1651L52.8023 71.4072L62.3779 71.4463L56.2905 86.2183L63.2936 86.2469L63.3665 104.816L43.3577 104.734Z" fill="black"/>
</svg>
