<svg width="24" height="24" viewBox="0 0 24 24" fill="none" xmlns="http://www.w3.org/2000/svg">
<g clip-path="url(#clip0_6347_3720)">
<path d="M21.7225 20.3078L16.4715 14.8518C17.5277 13.4661 18.0999 11.7721 18.1005 10.0298C18.1078 8.20136 17.4934 6.42475 16.358 4.99151C15.2227 3.55828 13.6338 2.55355 11.8523 2.14221C10.0707 1.73087 8.20219 1.93736 6.55342 2.72778C4.90465 3.51821 3.57354 4.84562 2.77853 6.49218C1.98352 8.13874 1.77183 10.0066 2.17821 11.7893C2.58459 13.5721 3.5849 15.1637 5.01497 16.303C6.44505 17.4424 8.21994 18.0617 10.0484 18.0595C11.8768 18.0573 13.6502 17.4336 15.0775 16.2908L20.2775 21.6908C20.4612 21.8826 20.7135 21.9937 20.9791 21.9995C21.2446 22.0053 21.5016 21.9054 21.6935 21.7218C21.8854 21.5381 21.9965 21.2857 22.0023 21.0202C22.0081 20.7546 21.9082 20.4976 21.7245 20.3058M4.00551 10.0298C4.00254 8.83357 4.35455 7.66336 5.01697 6.66729C5.6794 5.67123 6.62246 4.89409 7.72677 4.43426C8.83109 3.97443 10.047 3.85258 11.2206 4.08413C12.3942 4.31568 13.4727 4.89022 14.3196 5.73503C15.1665 6.57983 15.7438 7.65692 15.9782 8.82994C16.2127 10.003 16.0939 11.2192 15.6368 12.3246C15.1797 13.4301 14.4049 14.3751 13.4105 15.04C12.4161 15.7049 11.2467 16.0598 10.0505 16.0598C8.44979 16.06 6.91433 15.4253 5.78105 14.2948C4.64776 13.1644 4.00921 11.6305 4.00551 10.0298Z" fill="white"/>
</g>
<defs>
<clipPath id="clip0_6347_3720">
<rect width="24" height="24" fill="white"/>
</clipPath>
</defs>
</svg>
