<svg width="21" height="24" viewBox="0 0 21 24" fill="none" xmlns="http://www.w3.org/2000/svg">
<g id="Vector">
<path fill-rule="evenodd" clip-rule="evenodd" d="M1.53368 18.8801C0.59864 18.3475 0.0204909 17.3548 0.0185458 16.2787L0.00314533 7.75887C0.0012002 6.68278 0.575752 5.68808 1.50886 5.15209L8.98993 0.854785C9.91189 0.325192 11.0453 0.323155 11.9691 0.849432L19.4659 5.11997C20.4008 5.65257 20.9789 6.64511 20.9809 7.72112L20.9968 16.241C20.9988 17.3172 20.4242 18.3119 19.4911 18.848L12.01 23.1452C11.0881 23.6748 9.95472 23.6769 9.03088 23.1506L1.53368 18.8801Z" fill="#22A6A3"/>
<path d="M1.78116 18.4456C1.00196 18.0018 0.520166 17.1746 0.518545 16.2778L0.503145 7.75797C0.501524 6.86123 0.980317 6.03231 1.7579 5.58565L9.23898 1.28835C10.0073 0.847018 10.9518 0.845321 11.7217 1.28389L19.2184 5.55443C19.9975 5.99826 20.4793 6.82537 20.4809 7.72205L20.4968 16.242C20.4984 17.1387 20.0196 17.9677 19.242 18.4144L11.761 22.7117C10.9927 23.153 10.0482 23.1547 9.27835 22.7162L1.78116 18.4456Z" stroke="#FFB134" stroke-opacity="0.2"/>
</g>
</svg>
