<svg xmlns="http://www.w3.org/2000/svg" width="18" height="18" viewBox="0 0 18 18">
  <g id="Smock_Star_18_N" transform="translate(0 1)">
    <rect id="Canvas" width="18" height="18" transform="translate(0 -1)" fill="#ff13dc" opacity="0"/>
    <path id="Path_12962" data-name="Path 12962" d="M8.878.29l2.075,5.489,5.861.277a.245.245,0,0,1,.144.436l-4.579,3.67,1.547,5.66a.245.245,0,0,1-.371.269L8.649,12.871,3.744,16.091a.245.245,0,0,1-.371-.269l1.547-5.66L.342,6.492a.245.245,0,0,1,.144-.436l5.859-.277L8.421.29a.245.245,0,0,1,.458,0Z" fill="#d4af37"/>
  </g>
</svg>
