<svg xmlns="http://www.w3.org/2000/svg" width="24" height="24" viewBox="0 0 24 24">
  <g id="Smock_Stopwatch_18_N" transform="translate(1 2)">
    <rect id="Canvas" width="24" height="24" transform="translate(-1 -2)" fill="#ff13dc" opacity="0"/>
    <g id="Group_196674" data-name="Group 196674">
      <path id="Path_12955" data-name="Path 12955" d="M10,1h.5a.5.5,0,1,0,0-1h-2a.5.5,0,0,0,0,1H9V2h1Z" transform="translate(1.362)"/>
      <path id="Path_12956" data-name="Path 12956" d="M10.858,2.035A8.7,8.7,0,0,0,5.035,4.268l-.978-1,.416-.423a.607.607,0,0,0,0-.847A.581.581,0,0,0,3.64,2l-.416.423-.832.847-.417.424a.607.607,0,0,0,0,.847.581.581,0,0,0,.832,0l.416-.423.982,1a9.108,9.108,0,0,0-.423,11.269,8.727,8.727,0,0,0,10.729,2.808A9.026,9.026,0,0,0,19.481,9.114a8.861,8.861,0,0,0-8.623-7.079Zm0,16.767a7.662,7.662,0,0,1-7.287-5.424A7.861,7.861,0,0,1,6.439,4.664a7.538,7.538,0,0,1,9.026.141l-5.25,5.344c-.012.013-.022.024-.034.037a1.127,1.127,0,0,0-.038,1.573,1.079,1.079,0,0,0,1.545.038l.033-.033.04-.04,5.243-5.337a7.9,7.9,0,0,1,.681,8.134A7.633,7.633,0,0,1,10.858,18.8Z"/>
    </g>
  </g>
</svg>
