<svg xmlns="http://www.w3.org/2000/svg" width="156.551" height="180.539" viewBox="0 0 156.551 180.539">
  <g id="Group_198012" data-name="Group 198012" transform="matrix(0.999, 0.035, -0.035, 0.999, 3199.066, -15058.79)">
    <g id="Polygon_5" data-name="Polygon 5" transform="matrix(0.719, -0.695, 0.695, 0.719, -2659.575, 15242.48)" fill="none">
      <path d="M55.5,0,111,97H0Z" stroke="none"/>
      <path d="M 55.50000762939453 4.0272216796875 L 3.448562622070312 95.00000762939453 L 107.5514373779297 95.00000762939453 L 55.50000762939453 4.0272216796875 M 55.50000762939453 -7.62939453125e-06 L 111.0000076293945 97.00000762939453 L -7.62939453125e-06 97.00000762939453 L 55.50000762939453 -7.62939453125e-06 Z" stroke="none" fill="#76bed0"/>
    </g>
    <g id="Polygon_6" data-name="Polygon 6" transform="translate(-2668.927 15237.024) rotate(-43)" fill="none">
      <path d="M57.775,0,115.55,95.312H0Z" stroke="none"/>
      <path d="M 57.77477264404297 3.858268737792969 L 3.551078796386719 93.31206512451172 L 111.9984664916992 93.31206512451172 L 57.77477264404297 3.858268737792969 M 57.77477264404297 -7.62939453125e-06 L 115.5495376586914 95.31206512451172 L 7.62939453125e-06 95.31206512451172 L 57.77477264404297 -7.62939453125e-06 Z" stroke="none" fill="#ff6b35"/>
    </g>
    <line id="Line_12" data-name="Line 12" x1="94" y2="101" transform="translate(-2659.5 15236.5)" fill="none" stroke="#ff6b35" stroke-width="2"/>
    <path id="Path_13526" data-name="Path 13526" d="M62,0,0,66.369" transform="translate(-2643.5 15236.5)" fill="none" stroke="#76bed0" stroke-width="2"/>
  </g>
</svg>
