<svg xmlns="http://www.w3.org/2000/svg" width="117.719" height="123.438" viewBox="0 0 117.719 123.438">
  <g id="Group_198113" data-name="Group 198113" transform="translate(2922.503 -15166.546) rotate(1)">
    <g id="Polygon_5" data-name="Polygon 5" transform="matrix(0.719, -0.695, 0.695, 0.719, -2637.356, 15265.488)" fill="none">
      <path d="M37.089,0,74.178,65.015H0Z" stroke="none"/>
      <path d="M 37.08897399902344 4.036235809326172 L 3.4434814453125 63.0147819519043 L 70.73446655273438 63.0147819519043 L 37.08897399902344 4.036235809326172 M 37.08897399902344 7.62939453125e-06 L 74.17794799804688 65.01477813720703 L 0 65.01477813720703 L 37.08897399902344 7.62939453125e-06 Z" stroke="none" fill="#e2e20c"/>
    </g>
    <g id="Polygon_6" data-name="Polygon 6" transform="matrix(0.719, -0.695, 0.695, 0.719, -2633.019, 15268.588)" fill="none">
      <path d="M33.906,0,67.812,55.936H0Z" stroke="none"/>
      <path d="M 33.90624618530273 3.858280181884766 L 3.55108642578125 53.93572998046875 L 64.26140594482422 53.93572998046875 L 33.90624618530273 3.858280181884766 M 33.90624618530273 0 L 67.81249237060547 55.93572998046875 L 0 55.93572998046875 L 33.90624618530273 0 Z" stroke="none" fill="#d28645"/>
    </g>
    <line id="Line_12" data-name="Line 12" x1="42" y2="46.369" transform="translate(-2634.5 15278.5)" fill="none" stroke="#d28645" stroke-width="2"/>
    <path id="Path_13524" data-name="Path 13524" d="M62,0,9.2,56.517,0,66.369" transform="translate(-2654.5 15270.5)" fill="none" stroke="#e2e20f" stroke-width="2"/>
  </g>
</svg>
