<svg xmlns="http://www.w3.org/2000/svg" width="102.905" height="100.177" viewBox="0 0 102.905 100.177">
  <g id="Group_198107" data-name="Group 198107" transform="translate(-1153.624 -674.877)">
    <g id="Polygon_14" data-name="Polygon 14" transform="translate(1158.474 717.424) rotate(-35)" fill="none">
      <path d="M37.089,0,74.178,65.015H0Z" stroke="none"/>
      <path d="M 37.08897399902344 4.036235809326172 L 3.4434814453125 63.0147819519043 L 70.73446655273438 63.0147819519043 L 37.08897399902344 4.036235809326172 M 37.08897399902344 7.62939453125e-06 L 74.17794799804688 65.01477813720703 L 0 65.01477813720703 L 37.08897399902344 7.62939453125e-06 Z" stroke="none" fill="#52ade9"/>
    </g>
    <g id="Polygon_15" data-name="Polygon 15" transform="matrix(0.819, -0.574, 0.574, 0.819, 1162.273, 721.163)" fill="none">
      <path d="M33.906,0,67.812,55.936H0Z" stroke="none"/>
      <path d="M 33.90624618530273 3.858280181884766 L 3.55108642578125 53.93572998046875 L 64.26140594482422 53.93572998046875 L 33.90624618530273 3.858280181884766 M 33.90624618530273 0 L 67.81249237060547 55.93572998046875 L 0 55.93572998046875 L 33.90624618530273 0 Z" stroke="none" fill="#d28645"/>
    </g>
    <line id="Line_16" data-name="Line 16" x1="42" y2="46.369" transform="translate(1160.904 722.523) rotate(8)" fill="none" stroke="#d28645" stroke-width="2"/>
  </g>
</svg>
