<svg xmlns="http://www.w3.org/2000/svg" width="166.418" height="151.204" viewBox="0 0 166.418 151.204">
  <g id="Group_198022" data-name="Group 198022" transform="translate(-1148.386 -20.859)">
    <g id="Polygon_7" data-name="Polygon 7" transform="matrix(0.799, -0.602, 0.602, 0.799, 1162.378, 91.761)" fill="none">
      <path d="M58.906,0l58.906,96.936H0Z" stroke="none"/>
      <path d="M 58.90624618530273 3.851226806640625 L 3.555686950683594 94.93572998046875 L 114.2568054199219 94.93572998046875 L 58.90624618530273 3.851226806640625 M 58.90624618530273 0 L 117.8125 96.93572998046875 L -7.62939453125e-06 96.93572998046875 L 58.90624618530273 0 Z" stroke="none" fill="#e2e20f"/>
    </g>
    <g id="Polygon_8" data-name="Polygon 8" transform="matrix(0.799, -0.602, 0.602, 0.799, 1148.386, 92.25)" fill="none">
      <path d="M58.906,0l58.906,96.936H0Z" stroke="none"/>
      <path d="M 58.90624618530273 3.851226806640625 L 3.555686950683594 94.93572998046875 L 114.2568054199219 94.93572998046875 L 58.90624618530273 3.851226806640625 M 58.90624618530273 0 L 117.8125 96.93572998046875 L -7.62939453125e-06 96.93572998046875 L 58.90624618530273 0 Z" stroke="none" fill="#d28645"/>
    </g>
    <path id="Path_13529" data-name="Path 13529" d="M62,0,9.2,56.517,0,66.369" transform="translate(1182.528 97.866) rotate(7)" fill="none" stroke="#e2e20f" stroke-width="2"/>
    <line id="Line_13" data-name="Line 13" x1="83.995" y2="68.147" transform="translate(1155.451 95.018)" fill="none" stroke="#d28645" stroke-width="2"/>
  </g>
</svg>
