<svg xmlns="http://www.w3.org/2000/svg" width="299.706" height="258.942" viewBox="0 0 299.706 258.942">
  <g id="Group_198115" data-name="Group 198115" transform="translate(2703.496 -15079.239)">
    <g id="Polygon_5" data-name="Polygon 5" transform="translate(-2688.233 15211.995) rotate(-45)" fill="none">
      <path d="M85,0l85,149H0Z" stroke="none"/>
      <path d="M 85.00000762939453 4.0362548828125 L 3.443496704101562 147 L 166.5565185546875 147 L 85.00000762939453 4.0362548828125 M 85.00000762939453 1.52587890625e-05 L 170 149 L 1.52587890625e-05 149 L 85.00000762939453 1.52587890625e-05 Z" stroke="none" fill="#fff"/>
    </g>
    <g id="Polygon_6" data-name="Polygon 6" transform="translate(-2703.496 15199.953) rotate(-43)" fill="none">
      <path d="M88.5,0,177,146H0Z" stroke="none"/>
      <path d="M 88.50000762939453 3.8582763671875 L 3.55108642578125 144 L 173.4489288330078 144 L 88.50000762939453 3.8582763671875 M 88.50000762939453 1.52587890625e-05 L 177 146 L 1.52587890625e-05 146 L 88.50000762939453 1.52587890625e-05 Z" stroke="none" fill="#d28645"/>
    </g>
    <line id="Line_12" data-name="Line 12" x1="94" y2="101" transform="translate(-2659.5 15236.5)" fill="none" stroke="#d28645" stroke-width="2"/>
    <line id="Line_13" data-name="Line 13" x1="144" y2="145" transform="translate(-2548.5 15156.5)" fill="none" stroke="#52b0ea" stroke-width="2"/>
  </g>
</svg>
