<svg xmlns="http://www.w3.org/2000/svg" width="200" height="200" viewBox="0 0 200 200">
  <g id="Group_1" data-name="Group 1" transform="translate(-371 -365)">
    <rect id="Rectangle_1" data-name="Rectangle 1" width="200" height="200" transform="translate(371 365)" fill="none"/>
    <g id="whatweoffer_quote" transform="translate(353.023 352.647)">
      <path id="Path_1" data-name="Path 1" d="M192.758,63.124a18.393,18.393,0,0,1,8.978,16.045l-.933,68.179a18.363,18.363,0,0,1-9.482,15.817l-59.759,33.071a18.48,18.48,0,0,1-18.413-.3l-58.913-35.16a18.4,18.4,0,0,1-8.978-16.045l.933-68.178a18.367,18.367,0,0,1,9.481-15.817l59.759-33.071a18.481,18.481,0,0,1,18.414.3Z" fill="none" stroke="rgba(254,191,0,0.5)" stroke-width="18"/>
      <path id="Path_2" data-name="Path 2" d="M126.576,99.655a12.671,12.671,0,0,1,6.184,11.052l-.643,46.961a12.649,12.649,0,0,1-6.531,10.9L84.424,191.342a12.729,12.729,0,0,1-12.683-.209L31.163,166.915a12.672,12.672,0,0,1-6.184-11.052l.643-46.961a12.65,12.65,0,0,1,6.531-10.9L73.314,75.228A12.73,12.73,0,0,1,86,75.437Z" fill="#fad000"/>
      <path id="Path_3" data-name="Path 3" d="M28.418-135.645q-6.738,1.27-9.473,9.766a26.7,26.7,0,0,0-1.367,8.3,5.991,5.991,0,0,0,.049.83q.049.342.146,1.514H28.418v21.289H7.617v-19.629q0-14.453,5.762-22.266a21.385,21.385,0,0,1,15.039-8.984Zm32.91,0a10.949,10.949,0,0,0-8.154,6.055,24.766,24.766,0,0,0-2.783,11.914q0,.586.049,1.172a6.664,6.664,0,0,0,.244,1.27H61.328v21.289H40.43v-19.629a43.314,43.314,0,0,1,4.883-20.752q4.883-9.131,16.016-10.5Z" transform="translate(35.41 260.413)"/>
    </g>
  </g>
</svg>
